<svg xmlns="http://www.w3.org/2000/svg" viewBox="0 0 64 64">
  <defs>
    <linearGradient id="wg" x1="0" y1="0" x2="1" y2="1">
      <stop offset="0%" stop-color="#00ff8c"/>
      <stop offset="100%" stop-color="#00dcff"/>
    </linearGradient>
  </defs>
  <rect width="64" height="64" rx="17" fill="#0a0519"/>
  <rect x="1" y="1" width="62" height="62" rx="16" fill="none" stroke="url(#wg)" stroke-width="1.5" opacity="0.4"/>
  <g transform="translate(12,10) scale(1.6)">
    <path d="M20.5 3.5C12.5 3.5 6 9.4 6 16.7c0 2.9 1 5.7 2.8 8l-1.8 5.3 5.5-1.8c2.2 1.2 4.7 1.8 7.2 1.8h.8c8 0 14.5-5.9 14.5-13.2S28.5 3.5 20.5 3.5z" fill="url(#wg)" opacity="0.9"/>
    <path d="M16 13c-.5-1-1-.9-1.4-.9h-1.2c-.4 0-1 .1-1.5.7s-2 1.9-2 4.7 2 5.4 2.3 5.8c.3.4 4 6 9.6 8.4 4.7 2 5.7 1.6 6.7 1.5 1-.1 3.2-1.3 3.7-2.5.4-1.2.4-2.3.3-2.5-.1-.2-.5-.4-1-.7-.5-.3-3.2-1.6-3.7-1.7-.5-.2-.9-.1-1.3.4s-1.5 1.7-1.8 2.1c-.3.4-.7.4-1.2.1-.5-.3-2.2-.8-4.2-2.6-1.6-1.4-2.6-3.1-2.9-3.6-.3-.5 0-.8.2-1.1.2-.3.5-.6.8-1 .2-.3.3-.5.5-1 .2-.4.1-.8 0-1.1-.2-.3-1.3-3-1.8-4.1z" fill="#0a0519"/>
  </g>
</svg>
